<svg id="Layer_1" enable-background="new 0 0 512 512" height="512" viewBox="0 0 512 512" width="512" xmlns="http://www.w3.org/2000/svg"><g><g><g id="XMLID_604_"><g id="XMLID_605_"><g id="XMLID_606_"><g id="XMLID_607_"><g id="XMLID_637_"><g id="XMLID_638_"><g id="XMLID_639_"><g id="XMLID_640_"><g id="XMLID_641_"><g id="XMLID_642_"><g id="XMLID_643_"><g id="XMLID_644_"><g id="XMLID_645_"><g id="XMLID_647_"><circle id="XMLID_648_" cx="256" cy="256" fill="#fc445f" r="256"/></g></g></g></g></g></g></g></g></g></g></g></g></g></g></g><path d="m512 256c0-22.938-3.034-45.163-8.692-66.317l-89.996-89.995s-66.312-22.688-92.312 26.312-224.645 290.645-224.645 290.645l83.985 83.985c23.913 7.387 49.321 11.37 75.66 11.37 141.385 0 256-114.615 256-256z" fill="#e00f5a"/><g><path d="m97.505 354.926-1.15 61.719 61.719-1.15-1.981-34.821 34.82 1.981-1.98-34.821 34.82 1.981-1.98-34.821 34.82 1.981 47.918-47.918-60.568-60.569z" fill="#fed940"/><g><path d="m304.515 269.056-47.921 47.92-34.818-1.98 1.98 34.818-34.818-1.98 1.98 34.818-34.825-1.973 1.98 34.818-61.716 1.146 177.872-177.873z" fill="#fbbe2c"/></g><path d="m413.312 99.688c-45.257-45.257-118.634-45.257-163.891 0s-45.257 118.634 0 163.891 118.634 45.257 163.891 0 45.257-118.634 0-163.891zm-69.934 69.934c-11.819-11.819-11.819-30.982 0-42.801s30.982-11.819 42.801 0 11.819 30.982 0 42.801-30.982 11.819-42.801 0z" fill="#ffe780"/><path d="m413.31 99.689-27.132 27.132c11.816 11.816 11.816 30.978 0 42.794-11.823 11.823-30.985 11.823-42.801.007l-93.953 93.953c10.698 10.698 22.967 18.866 36.069 24.501 42.306 18.222 93.26 10.062 127.817-24.494 45.262-45.261 45.255-118.638 0-163.893z" fill="#fed940"/></g></g></svg>