<svg width="662" height="662" viewBox="0 0 662 662" fill="none" xmlns="http://www.w3.org/2000/svg">
<path d="M0 331C0 148.194 148.194 0 331 0V0C513.806 0 662 148.194 662 331V331C662 513.806 513.806 662 331 662H140C62.6801 662 0 599.32 0 522V331Z" fill="url(#paint0_linear)"/>
<path d="M126.8 388.888H102.176V475H92.384V388.888H67.76V379.24H126.8V388.888ZM179.134 475.72C170.398 475.72 162.382 473.56 155.086 469.24C147.79 464.92 141.982 459.112 137.662 451.816C133.342 444.52 131.182 436.504 131.182 427.768C131.182 419.032 133.342 411.016 137.662 403.72C141.982 396.328 147.79 390.472 155.086 386.152C162.478 381.832 170.494 379.672 179.134 379.672C187.774 379.672 195.79 381.832 203.182 386.152C210.574 390.472 216.43 396.328 220.75 403.72C225.07 411.112 227.23 419.128 227.23 427.768C227.23 436.408 225.07 444.424 220.75 451.816C216.43 459.112 210.574 464.92 203.182 469.24C195.886 473.56 187.87 475.72 179.134 475.72ZM179.134 465.928C186.046 465.928 192.43 464.248 198.286 460.888C204.142 457.432 208.75 452.776 212.11 446.92C215.566 441.064 217.294 434.68 217.294 427.768C217.294 420.856 215.566 414.472 212.11 408.616C208.75 402.76 204.142 398.152 198.286 394.792C192.43 391.336 186.046 389.608 179.134 389.608C172.222 389.608 165.838 391.336 159.982 394.792C154.126 398.152 149.47 402.76 146.014 408.616C142.654 414.472 140.974 420.856 140.974 427.768C140.974 434.68 142.654 441.064 146.014 446.92C149.47 452.776 154.126 457.432 159.982 460.888C165.838 464.248 172.222 465.928 179.134 465.928ZM249.992 379.24V475H240.2V379.24H249.992ZM327.748 475H315.652L312.484 470.392H312.34L312.052 470.536L311.764 470.824C306.772 473.992 301.348 475.576 295.492 475.576C290.212 475.576 285.172 474.328 280.372 471.832C275.572 469.24 271.636 465.64 268.564 461.032C264.82 455.56 262.948 449.464 262.948 442.744C262.948 440.92 263.092 439.096 263.38 437.272C264.052 433.336 265.396 429.688 267.412 426.328C269.428 422.968 272.068 420.136 275.332 417.832L272.452 413.8C270.82 411.496 269.716 409.432 269.14 407.608C268.66 405.784 268.42 404.392 268.42 403.432C268.42 399.016 269.524 394.984 271.732 391.336C273.94 387.592 276.868 384.616 280.516 382.408C284.26 380.2 288.292 379.096 292.612 379.096C297.028 379.096 301.06 380.2 304.708 382.408C308.452 384.616 311.428 387.592 313.636 391.336C315.844 394.984 316.948 399.016 316.948 403.432H307.156C307.156 399.4 305.716 395.992 302.836 393.208C300.052 390.328 296.644 388.888 292.612 388.888C288.676 388.888 285.268 390.328 282.388 393.208C279.604 395.992 278.212 399.352 278.212 403.288C278.212 403.576 278.356 404.2 278.644 405.16C279.028 406.024 279.652 407.032 280.516 408.184L313.78 455.416C315.988 451.96 316.996 448.168 316.804 444.04V440.584H326.596V443.752C326.692 447.4 326.164 450.952 325.012 454.408C323.86 457.864 322.132 461.032 319.828 463.912L327.748 475ZM306.724 462.328L280.948 425.752C278.26 427.672 276.196 430.12 274.756 433.096C273.412 435.976 272.74 439.192 272.74 442.744C272.74 447.448 274.084 451.72 276.772 455.56C278.884 458.824 281.572 461.368 284.836 463.192C288.196 464.92 291.7 465.784 295.348 465.784C299.572 465.784 303.268 464.68 306.436 462.472L306.724 462.328ZM433.339 379.24V474.712H423.403V393.208L391.147 439.864H382.795L350.539 393.208V475H340.747V379.24H352.843L386.971 428.632L421.099 379.24H433.339ZM494.275 475.72C485.539 475.72 477.523 473.56 470.227 469.24C462.931 464.92 457.123 459.112 452.803 451.816C448.483 444.52 446.323 436.504 446.323 427.768C446.323 419.032 448.483 411.016 452.803 403.72C457.123 396.328 462.931 390.472 470.227 386.152C477.619 381.832 485.635 379.672 494.275 379.672C502.915 379.672 510.931 381.832 518.323 386.152C525.715 390.472 531.571 396.328 535.891 403.72C540.211 411.112 542.371 419.128 542.371 427.768C542.371 436.408 540.211 444.424 535.891 451.816C531.571 459.112 525.715 464.92 518.323 469.24C511.027 473.56 503.011 475.72 494.275 475.72ZM494.275 465.928C501.187 465.928 507.571 464.248 513.427 460.888C519.283 457.432 523.891 452.776 527.251 446.92C530.707 441.064 532.435 434.68 532.435 427.768C532.435 420.856 530.707 414.472 527.251 408.616C523.891 402.76 519.283 398.152 513.427 394.792C507.571 391.336 501.187 389.608 494.275 389.608C487.363 389.608 480.979 391.336 475.123 394.792C469.267 398.152 464.611 402.76 461.155 408.616C457.795 414.472 456.115 420.856 456.115 427.768C456.115 434.68 457.795 441.064 461.155 446.92C464.611 452.776 469.267 457.432 475.123 460.888C480.979 464.248 487.363 465.928 494.275 465.928ZM565.133 379.24V475H555.341V379.24H565.133Z" fill="white"/>
<path d="M242 180.026C242 173.512 247.844 168.231 255.054 168.231H313.795V309.769H255.054C247.844 309.769 242 304.488 242 297.974V180.026Z" fill="white"/>
<path d="M397.897 306.692C405.089 306.706 411.231 301.568 411.231 294.953V176.893C411.231 170.278 405.089 165.14 397.897 165.154V306.692Z" fill="white"/>
<path d="M319.949 168.433L376.355 159.193C384.368 157.88 391.744 163.427 391.744 170.765V307.235C391.744 314.573 384.368 320.12 376.355 318.807L319.949 309.567V168.433Z" fill="white"/>
<defs>
<linearGradient id="paint0_linear" x1="-2.40571e-05" y1="-251.5" x2="331" y2="662" gradientUnits="userSpaceOnUse">
<stop stop-color="#C6FFDD"/>
<stop offset="0.53302" stop-color="#FBD786" stop-opacity="0.5"/>
<stop offset="0.979167" stop-color="#F7797D"/>
</linearGradient>
</defs>
</svg>
