<svg width="728" height="160" viewBox="0 0 728 160" fill="none" xmlns="http://www.w3.org/2000/svg">
<path d="M686 15.7098C686 7.0335 693.033 0 701.71 0L705.637 0C714.313 0 721.347 7.0335 721.347 15.7098V33.3832H701.71C693.033 33.3832 686 26.3497 686 17.6735V15.7098Z" fill="#F7797D"/>
<path d="M280.8 58.888H256.176V145H246.384V58.888H221.76V49.24H280.8V58.888ZM333.134 145.72C324.398 145.72 316.382 143.56 309.086 139.24C301.79 134.92 295.982 129.112 291.662 121.816C287.342 114.52 285.182 106.504 285.182 97.768C285.182 89.032 287.342 81.016 291.662 73.72C295.982 66.328 301.79 60.472 309.086 56.152C316.478 51.832 324.494 49.672 333.134 49.672C341.774 49.672 349.79 51.832 357.182 56.152C364.574 60.472 370.43 66.328 374.75 73.72C379.07 81.112 381.23 89.128 381.23 97.768C381.23 106.408 379.07 114.424 374.75 121.816C370.43 129.112 364.574 134.92 357.182 139.24C349.886 143.56 341.87 145.72 333.134 145.72ZM333.134 135.928C340.046 135.928 346.43 134.248 352.286 130.888C358.142 127.432 362.75 122.776 366.11 116.92C369.566 111.064 371.294 104.68 371.294 97.768C371.294 90.856 369.566 84.472 366.11 78.616C362.75 72.76 358.142 68.152 352.286 64.792C346.43 61.336 340.046 59.608 333.134 59.608C326.222 59.608 319.838 61.336 313.982 64.792C308.126 68.152 303.47 72.76 300.014 78.616C296.654 84.472 294.974 90.856 294.974 97.768C294.974 104.68 296.654 111.064 300.014 116.92C303.47 122.776 308.126 127.432 313.982 130.888C319.838 134.248 326.222 135.928 333.134 135.928ZM403.992 49.24V145H394.2V49.24H403.992ZM481.748 145H469.652L466.484 140.392H466.34L466.052 140.536L465.764 140.824C460.772 143.992 455.348 145.576 449.492 145.576C444.212 145.576 439.172 144.328 434.372 141.832C429.572 139.24 425.636 135.64 422.564 131.032C418.82 125.56 416.948 119.464 416.948 112.744C416.948 110.92 417.092 109.096 417.38 107.272C418.052 103.336 419.396 99.688 421.412 96.328C423.428 92.968 426.068 90.136 429.332 87.832L426.452 83.8C424.82 81.496 423.716 79.432 423.14 77.608C422.66 75.784 422.42 74.392 422.42 73.432C422.42 69.016 423.524 64.984 425.732 61.336C427.94 57.592 430.868 54.616 434.516 52.408C438.26 50.2 442.292 49.096 446.612 49.096C451.028 49.096 455.06 50.2 458.708 52.408C462.452 54.616 465.428 57.592 467.636 61.336C469.844 64.984 470.948 69.016 470.948 73.432H461.156C461.156 69.4 459.716 65.992 456.836 63.208C454.052 60.328 450.644 58.888 446.612 58.888C442.676 58.888 439.268 60.328 436.388 63.208C433.604 65.992 432.212 69.352 432.212 73.288C432.212 73.576 432.356 74.2 432.644 75.16C433.028 76.024 433.652 77.032 434.516 78.184L467.78 125.416C469.988 121.96 470.996 118.168 470.804 114.04V110.584H480.596V113.752C480.692 117.4 480.164 120.952 479.012 124.408C477.86 127.864 476.132 131.032 473.828 133.912L481.748 145ZM460.724 132.328L434.948 95.752C432.26 97.672 430.196 100.12 428.756 103.096C427.412 105.976 426.74 109.192 426.74 112.744C426.74 117.448 428.084 121.72 430.772 125.56C432.884 128.824 435.572 131.368 438.836 133.192C442.196 134.92 445.7 135.784 449.348 135.784C453.572 135.784 457.268 134.68 460.436 132.472L460.724 132.328ZM587.339 49.24V144.712H577.403V63.208L545.147 109.864H536.795L504.539 63.208V145H494.747V49.24H506.843L540.971 98.632L575.099 49.24H587.339ZM648.275 145.72C639.539 145.72 631.523 143.56 624.227 139.24C616.931 134.92 611.123 129.112 606.803 121.816C602.483 114.52 600.323 106.504 600.323 97.768C600.323 89.032 602.483 81.016 606.803 73.72C611.123 66.328 616.931 60.472 624.227 56.152C631.619 51.832 639.635 49.672 648.275 49.672C656.915 49.672 664.931 51.832 672.323 56.152C679.715 60.472 685.571 66.328 689.891 73.72C694.211 81.112 696.371 89.128 696.371 97.768C696.371 106.408 694.211 114.424 689.891 121.816C685.571 129.112 679.715 134.92 672.323 139.24C665.027 143.56 657.011 145.72 648.275 145.72ZM648.275 135.928C655.187 135.928 661.571 134.248 667.427 130.888C673.283 127.432 677.891 122.776 681.251 116.92C684.707 111.064 686.435 104.68 686.435 97.768C686.435 90.856 684.707 84.472 681.251 78.616C677.891 72.76 673.283 68.152 667.427 64.792C661.571 61.336 655.187 59.608 648.275 59.608C641.363 59.608 634.979 61.336 629.123 64.792C623.267 68.152 618.611 72.76 615.155 78.616C611.795 84.472 610.115 90.856 610.115 97.768C610.115 104.68 611.795 111.064 615.155 116.92C618.611 122.776 623.267 127.432 629.123 130.888C634.979 134.248 641.363 135.928 648.275 135.928ZM719.133 49.24V145H709.341V49.24H719.133Z" fill="#F7797D"/>
<path d="M0 21.0256C0 14.5115 5.8443 9.23077 13.0536 9.23077H71.7949V150.769H13.0536C5.8443 150.769 0 145.488 0 138.974V21.0256Z" fill="url(#paint0_linear)"/>
<path d="M155.897 147.692C163.089 147.706 169.231 142.568 169.231 135.953V17.893C169.231 11.2782 163.089 6.14042 155.897 6.15387V147.692Z" fill="url(#paint1_linear)"/>
<path d="M77.9487 9.4333L134.355 0.193098C142.368 -1.11953 149.744 4.4267 149.744 11.7645V148.235C149.744 155.573 142.368 161.12 134.355 159.807L77.9487 150.567V9.4333Z" fill="url(#paint2_linear)"/>
<defs>
<linearGradient id="paint0_linear" x1="-2.60903e-06" y1="-44.541" x2="104.507" y2="101.759" gradientUnits="userSpaceOnUse">
<stop stop-color="#C6FFDD"/>
<stop offset="0.53302" stop-color="#FBD786" stop-opacity="0.5"/>
<stop offset="0.979167" stop-color="#F7797D"/>
</linearGradient>
<linearGradient id="paint1_linear" x1="155.897" y1="-47.6179" x2="209.705" y2="-33.629" gradientUnits="userSpaceOnUse">
<stop stop-color="#C6FFDD"/>
<stop offset="0.53302" stop-color="#FBD786" stop-opacity="0.5"/>
<stop offset="0.979167" stop-color="#F7797D"/>
</linearGradient>
<linearGradient id="paint2_linear" x1="77.9487" y1="-60.7855" x2="200.034" y2="90.4027" gradientUnits="userSpaceOnUse">
<stop stop-color="#C6FFDD"/>
<stop offset="0.53302" stop-color="#FBD786" stop-opacity="0.5"/>
<stop offset="0.979167" stop-color="#F7797D"/>
</linearGradient>
</defs>
</svg>
